<?xml version="1.0" encoding="UTF-8"?>
<svg width="162px" height="30px" viewBox="0 0 162 30" version="1.1" xmlns="http://www.w3.org/2000/svg" xmlns:xlink="http://www.w3.org/1999/xlink">
    <!-- Generator: sketchtool 52.5 (67469) - http://www.bohemiancoding.com/sketch -->
    <title>C46E607C-7B36-4C5A-8A1F-A19336A80BF3</title>
    <desc>Created with sketchtool.</desc>
    <g id="Symbols" stroke="none" stroke-width="1" fill="none" fill-rule="evenodd">
        <g id="logo">
            <g transform="translate(1.000000, 6.000000)" id="Logo">
                <path d="M10,13.866 C10.2933348,14.1446681 10.44,14.4599982 10.44,14.812 C10.44,15.149335 10.3190012,15.4499987 10.077,15.714 C9.83499879,15.9780013 9.55266828,16.11 9.23,16.11 C8.90733172,16.11 8.60666806,15.9780013 8.328,15.714 L3.18,11.05 L3.18,14.812 C3.18,15.2373355 3.04800132,15.5599989 2.784,15.78 C2.51999868,16.0000011 2.19000198,16.11 1.794,16.11 C1.39799802,16.11 1.07166795,16.0000011 0.815,15.78 C0.55833205,15.5599989 0.43,15.2373355 0.43,14.812 L0.43,1.678 C0.43,1.25266454 0.55833205,0.9300011 0.815,0.71 C1.07166795,0.4899989 1.39799802,0.38 1.794,0.38 C2.19000198,0.38 2.51999868,0.4899989 2.784,0.71 C3.04800132,0.9300011 3.18,1.25266454 3.18,1.678 L3.18,9.95 L7.888,5.44 C8.15200132,5.17599868 8.45266498,5.044 8.79,5.044 C9.12733502,5.044 9.42066542,5.16866542 9.67,5.418 C9.91933458,5.66733458 10.044,5.96066498 10.044,6.298 C10.044,6.63533502 9.90466806,6.94333194 9.626,7.222 L6.172,10.434 L10,13.866 Z M17.128,16.176 C16.0279945,16.176 15.0636708,15.9486689 14.235,15.494 C13.4063292,15.0393311 12.7646689,14.3866709 12.31,13.536 C11.8553311,12.6853291 11.628,11.695339 11.628,10.566 C11.628,9.43666102 11.8553311,8.45033755 12.31,7.607 C12.7646689,6.76366245 13.4063292,6.11466894 14.235,5.66 C15.0636708,5.20533106 16.0279945,4.978 17.128,4.978 C18.2280055,4.978 19.1923292,5.20533106 20.021,5.66 C20.8496708,6.11466894 21.4876644,6.76366245 21.935,7.607 C22.3823356,8.45033755 22.606,9.43666102 22.606,10.566 C22.606,11.695339 22.3823356,12.6853291 21.935,13.536 C21.4876644,14.3866709 20.8496708,15.0393311 20.021,15.494 C19.1923292,15.9486689 18.2280055,16.176 17.128,16.176 Z M17.106,14.042 C18.0006711,14.042 18.6826643,13.7486696 19.152,13.162 C19.6213357,12.5753304 19.856,11.7100057 19.856,10.566 C19.856,9.43666102 19.6213357,8.57500297 19.152,7.981 C18.6826643,7.38699703 18.0080044,7.09 17.128,7.09 C16.2479956,7.09 15.5696691,7.38699703 15.093,7.981 C14.616331,8.57500297 14.378,9.43666102 14.378,10.566 C14.378,11.7100057 14.6126643,12.5753304 15.082,13.162 C15.5513357,13.7486696 16.2259956,14.042 17.106,14.042 Z M37.654,4.978 C38.8273392,4.978 39.7256636,5.32632985 40.349,6.023 C40.9723365,6.71967015 41.284,7.84532556 41.284,9.4 L41.284,14.812 C41.284,15.2373355 41.155668,15.5636655 40.899,15.791 C40.6423321,16.0183345 40.3086687,16.132 39.898,16.132 C39.501998,16.132 39.175668,16.0183345 38.919,15.791 C38.6623321,15.5636655 38.534,15.2373355 38.534,14.812 L38.534,9.4 C38.534,8.5933293 38.3910014,8.01766839 38.105,7.673 C37.8189986,7.32833161 37.3826696,7.156 36.796,7.156 C36.0773297,7.156 35.5053355,7.40166421 35.08,7.893 C34.6546645,8.38433579 34.442,9.05532908 34.442,9.906 L34.442,14.812 C34.442,15.2373355 34.313668,15.5636655 34.057,15.791 C33.8003321,16.0183345 33.474002,16.132 33.078,16.132 C32.681998,16.132 32.3520013,16.0183345 32.088,15.791 C31.8239987,15.5636655 31.692,15.2373355 31.692,14.812 L31.692,9.4 C31.692,8.5933293 31.5490014,8.01766839 31.263,7.673 C30.9769986,7.32833161 30.5406696,7.156 29.954,7.156 C29.2353297,7.156 28.6670021,7.40166421 28.249,7.893 C27.8309979,8.38433579 27.622,9.05532908 27.622,9.906 L27.622,14.812 C27.622,15.2373355 27.4900013,15.5636655 27.226,15.791 C26.9619987,16.0183345 26.632002,16.132 26.236,16.132 C25.839998,16.132 25.513668,16.0183345 25.257,15.791 C25.0003321,15.5636655 24.872,15.2373355 24.872,14.812 L24.872,6.298 C24.872,5.88733128 25.0039987,5.5720011 25.268,5.352 C25.5320013,5.1319989 25.861998,5.022 26.258,5.022 C26.6393352,5.022 26.9509988,5.12833227 27.193,5.341 C27.4350012,5.55366773 27.556,5.85799802 27.556,6.254 L27.556,6.782 C27.893335,6.1953304 28.3443305,5.74800154 28.909,5.44 C29.4736695,5.13199846 30.122663,4.978 30.856,4.978 C32.4693414,4.978 33.5473306,5.65265992 34.09,7.002 C34.4126683,6.38599692 34.8893302,5.8946685 35.52,5.528 C36.1506698,5.1613315 36.861996,4.978 37.654,4.978 Z M56.86,4.978 C58.0333392,4.978 58.9316636,5.32632985 59.555,6.023 C60.1783365,6.71967015 60.49,7.84532556 60.49,9.4 L60.49,14.812 C60.49,15.2373355 60.361668,15.5636655 60.105,15.791 C59.8483321,16.0183345 59.5146687,16.132 59.104,16.132 C58.707998,16.132 58.381668,16.0183345 58.125,15.791 C57.8683321,15.5636655 57.74,15.2373355 57.74,14.812 L57.74,9.4 C57.74,8.5933293 57.5970014,8.01766839 57.311,7.673 C57.0249986,7.32833161 56.5886696,7.156 56.002,7.156 C55.2833297,7.156 54.7113355,7.40166421 54.286,7.893 C53.8606645,8.38433579 53.648,9.05532908 53.648,9.906 L53.648,14.812 C53.648,15.2373355 53.519668,15.5636655 53.263,15.791 C53.0063321,16.0183345 52.680002,16.132 52.284,16.132 C51.887998,16.132 51.5580013,16.0183345 51.294,15.791 C51.0299987,15.5636655 50.898,15.2373355 50.898,14.812 L50.898,9.4 C50.898,8.5933293 50.7550014,8.01766839 50.469,7.673 C50.1829986,7.32833161 49.7466696,7.156 49.16,7.156 C48.4413297,7.156 47.8730021,7.40166421 47.455,7.893 C47.0369979,8.38433579 46.828,9.05532908 46.828,9.906 L46.828,14.812 C46.828,15.2373355 46.6960013,15.5636655 46.432,15.791 C46.1679987,16.0183345 45.838002,16.132 45.442,16.132 C45.045998,16.132 44.719668,16.0183345 44.463,15.791 C44.2063321,15.5636655 44.078,15.2373355 44.078,14.812 L44.078,6.298 C44.078,5.88733128 44.2099987,5.5720011 44.474,5.352 C44.7380013,5.1319989 45.067998,5.022 45.464,5.022 C45.8453352,5.022 46.1569988,5.12833227 46.399,5.341 C46.6410012,5.55366773 46.762,5.85799802 46.762,6.254 L46.762,6.782 C47.099335,6.1953304 47.5503305,5.74800154 48.115,5.44 C48.6796695,5.13199846 49.328663,4.978 50.062,4.978 C51.6753414,4.978 52.7533306,5.65265992 53.296,7.002 C53.6186683,6.38599692 54.0953302,5.8946685 54.726,5.528 C55.3566698,5.1613315 56.067996,4.978 56.86,4.978 Z M71.776,5.022 C72.2013355,5.022 72.5386654,5.13933216 72.788,5.374 C73.0373346,5.60866784 73.162,5.92399802 73.162,6.32 L73.162,14.856 C73.162,15.2373352 73.033668,15.5453322 72.777,15.78 C72.5203321,16.0146678 72.1866687,16.132 71.776,16.132 C71.379998,16.132 71.0646678,16.0220011 70.83,15.802 C70.5953322,15.5819989 70.478,15.2813352 70.478,14.9 L70.478,14.35 C70.140665,14.9366696 69.6860029,15.3876651 69.114,15.703 C68.5419971,16.0183349 67.8966703,16.176 67.178,16.176 C64.5379868,16.176 63.218,14.6946815 63.218,11.732 L63.218,6.32 C63.218,5.92399802 63.3426654,5.60866784 63.592,5.374 C63.8413346,5.13933216 64.1713313,5.022 64.582,5.022 C65.0073355,5.022 65.3446654,5.13933216 65.594,5.374 C65.8433346,5.60866784 65.968,5.92399802 65.968,6.32 L65.968,11.754 C65.968,12.5166705 66.1219985,13.0813315 66.43,13.448 C66.7380015,13.8146685 67.2219967,13.998 67.882,13.998 C68.6446705,13.998 69.2569977,13.7450025 69.719,13.239 C70.1810023,12.7329975 70.412,12.0620042 70.412,11.226 L70.412,6.32 C70.412,5.92399802 70.5366654,5.60866784 70.786,5.374 C71.0353346,5.13933216 71.3653313,5.022 71.776,5.022 Z M82.27,4.978 C83.5606731,4.978 84.5213302,5.344663 85.152,6.078 C85.7826698,6.811337 86.098,7.91865926 86.098,9.4 L86.098,14.812 C86.098,15.2226687 85.9770012,15.5453322 85.735,15.78 C85.4929988,16.0146678 85.1593355,16.132 84.734,16.132 C84.3086645,16.132 83.9713346,16.0146678 83.722,15.78 C83.4726654,15.5453322 83.348,15.2226687 83.348,14.812 L83.348,9.554 C83.348,8.71799582 83.1903349,8.10933524 82.875,7.728 C82.5596651,7.34666476 82.06467,7.156 81.39,7.156 C80.597996,7.156 79.9636691,7.40533084 79.487,7.904 C79.010331,8.40266916 78.772,9.06999582 78.772,9.906 L78.772,14.812 C78.772,15.2226687 78.6473346,15.5453322 78.398,15.78 C78.1486654,16.0146678 77.8113355,16.132 77.386,16.132 C76.9606645,16.132 76.6270012,16.0146678 76.385,15.78 C76.1429988,15.5453322 76.022,15.2226687 76.022,14.812 L76.022,6.298 C76.022,5.91666476 76.1466654,5.60866784 76.396,5.374 C76.6453346,5.13933216 76.9826645,5.022 77.408,5.022 C77.7893352,5.022 78.1009988,5.13566553 78.343,5.363 C78.5850012,5.59033447 78.706,5.8873315 78.706,6.254 L78.706,6.848 C79.0726685,6.24666366 79.5639969,5.78466828 80.18,5.462 C80.7960031,5.13933172 81.4926628,4.978 82.27,4.978 Z M90.256,16.132 C89.859998,16.132 89.533668,16.0183345 89.277,15.791 C89.0203321,15.5636655 88.892,15.2373355 88.892,14.812 L88.892,6.32 C88.892,5.89466454 89.0203321,5.5720011 89.277,5.352 C89.533668,5.1319989 89.859998,5.022 90.256,5.022 C90.652002,5.022 90.9819987,5.1319989 91.246,5.352 C91.5100013,5.5720011 91.642,5.89466454 91.642,6.32 L91.642,14.812 C91.642,15.2373355 91.5100013,15.5636655 91.246,15.791 C90.9819987,16.0183345 90.652002,16.132 90.256,16.132 Z M90.256,3.064 C89.7573308,3.064 89.3613348,2.92833469 89.068,2.657 C88.7746652,2.38566531 88.628,2.0300022 88.628,1.59 C88.628,1.1499978 88.7746652,0.79800132 89.068,0.534 C89.3613348,0.26999868 89.7573308,0.138 90.256,0.138 C90.7400024,0.138 91.1323318,0.26999868 91.433,0.534 C91.7336682,0.79800132 91.884,1.1499978 91.884,1.59 C91.884,2.0300022 91.7373348,2.38566531 91.444,2.657 C91.1506652,2.92833469 90.7546692,3.064 90.256,3.064 Z M100.068,14.086 C100.801337,14.1300002 101.168,14.4599969 101.168,15.076 C101.168,15.4280018 101.025001,15.6956657 100.739,15.879 C100.452999,16.0623342 100.046003,16.1393335 99.518,16.11 L98.924,16.066 C96.4599877,15.8899991 95.228,14.5700123 95.228,12.106 L95.228,7.31 L94.128,7.31 C93.731998,7.31 93.4276677,7.22200088 93.215,7.046 C93.0023323,6.86999912 92.896,6.61333502 92.896,6.276 C92.896,5.93866498 93.0023323,5.68200088 93.215,5.506 C93.4276677,5.32999912 93.731998,5.242 94.128,5.242 L95.228,5.242 L95.228,3.218 C95.228,2.82199802 95.3526654,2.50666784 95.602,2.272 C95.8513346,2.03733216 96.1886645,1.92 96.614,1.92 C97.0246687,1.92 97.3546654,2.03733216 97.604,2.272 C97.8533346,2.50666784 97.978,2.82199802 97.978,3.218 L97.978,5.242 L99.848,5.242 C100.244002,5.242 100.548332,5.32999912 100.761,5.506 C100.973668,5.68200088 101.08,5.93866498 101.08,6.276 C101.08,6.61333502 100.973668,6.86999912 100.761,7.046 C100.548332,7.22200088 100.244002,7.31 99.848,7.31 L97.978,7.31 L97.978,12.304 C97.978,13.3893388 98.4766617,13.9686663 99.474,14.042 L100.068,14.086 Z M110.1,5.814 C110.217334,5.54999868 110.374999,5.35566729 110.573,5.231 C110.771001,5.10633271 110.987332,5.044 111.222,5.044 C111.559335,5.044 111.863665,5.15766553 112.135,5.385 C112.406335,5.61233447 112.542,5.89466498 112.542,6.232 C112.542,6.39333414 112.498,6.56199912 112.41,6.738 L106.404,19.322 C106.154665,19.8206692 105.766003,20.07 105.238,20.07 C104.900665,20.07 104.603668,19.9636677 104.347,19.751 C104.090332,19.5383323 103.962,19.2706683 103.962,18.948 C103.962,18.7866659 104.006,18.6033344 104.094,18.398 L105.59,15.252 L101.498,6.738 C101.424666,6.5913326 101.388,6.42266762 101.388,6.232 C101.388,5.89466498 101.530999,5.60866784 101.817,5.374 C102.103001,5.13933216 102.429332,5.022 102.796,5.022 C103.045335,5.022 103.272666,5.08433271 103.478,5.209 C103.683334,5.33366729 103.844666,5.52799868 103.962,5.792 L107.042,12.59 L110.1,5.814 Z" fill="#454F5B"></path>
                <path d="M124.29,4.978 C125.786007,4.978 126.896996,5.34832963 127.623,6.089 C128.349004,6.82967037 128.712,7.95532578 128.712,9.466 L128.712,14.834 C128.712,15.230002 128.594668,15.5416655 128.36,15.769 C128.125332,15.9963345 127.802669,16.11 127.392,16.11 C127.010665,16.11 126.699001,15.9926678 126.457,15.758 C126.214999,15.5233322 126.094,15.2153352 126.094,14.834 L126.094,14.35 C125.844665,14.9220029 125.452336,15.3693317 124.917,15.692 C124.381664,16.0146683 123.762004,16.176 123.058,16.176 C122.33933,16.176 121.68667,16.0293348 121.1,15.736 C120.51333,15.4426652 120.051335,15.0393359 119.714,14.526 C119.376665,14.0126641 119.208,13.4406698 119.208,12.81 C119.208,12.017996 119.409665,11.3946689 119.813,10.94 C120.216335,10.4853311 120.872662,10.1553344 121.782,9.95 C122.691338,9.74466564 123.945325,9.642 125.544,9.642 L126.094,9.642 L126.094,9.136 C126.094,8.41732974 125.940002,7.89300165 125.632,7.563 C125.323998,7.23299835 124.825337,7.068 124.136,7.068 C123.710665,7.068 123.278002,7.13033271 122.838,7.255 C122.397998,7.37966729 121.877336,7.55933216 121.276,7.794 C120.894665,7.98466762 120.616001,8.08 120.44,8.08 C120.175999,8.08 119.959668,7.98466762 119.791,7.794 C119.622332,7.60333238 119.538,7.35400154 119.538,7.046 C119.538,6.79666542 119.600333,6.58033425 119.725,6.397 C119.849667,6.21366575 120.058665,6.04133414 120.352,5.88 C120.865336,5.60133194 121.477663,5.38133414 122.189,5.22 C122.900337,5.05866586 123.600663,4.978 124.29,4.978 Z M123.608,14.196 C124.341337,14.196 124.938998,13.9503358 125.401,13.459 C125.863002,12.9676642 126.094,12.3333372 126.094,11.556 L126.094,11.094 L125.698,11.094 C124.715328,11.094 123.952669,11.1379996 123.41,11.226 C122.867331,11.3140004 122.478668,11.4679989 122.244,11.688 C122.009332,11.9080011 121.892,12.2086648 121.892,12.59 C121.892,13.0593357 122.056998,13.4443318 122.387,13.745 C122.717002,14.0456682 123.123998,14.196 123.608,14.196 Z M137.688,4.978 C138.612005,4.978 139.436996,5.21266432 140.163,5.682 C140.889004,6.15133568 141.453665,6.81499571 141.857,7.673 C142.260335,8.53100429 142.462,9.51732776 142.462,10.632 C142.462,11.7466722 142.260335,12.7219958 141.857,13.558 C141.453665,14.3940042 140.89267,15.0393311 140.174,15.494 C139.45533,15.9486689 138.626671,16.176 137.688,16.176 C136.92533,16.176 136.243336,16.0146683 135.642,15.692 C135.040664,15.3693317 134.578668,14.9220029 134.256,14.35 L134.256,18.838 C134.256,19.2193352 134.131335,19.5199989 133.882,19.74 C133.632665,19.9600011 133.302669,20.07 132.892,20.07 C132.481331,20.07 132.147668,19.9526678 131.891,19.718 C131.634332,19.4833322 131.506,19.1753352 131.506,18.794 L131.506,6.32 C131.506,5.92399802 131.626999,5.60866784 131.869,5.374 C132.111001,5.13933216 132.437331,5.022 132.848,5.022 C133.258669,5.022 133.588665,5.13933216 133.838,5.374 C134.087335,5.60866784 134.212,5.92399802 134.212,6.32 L134.212,6.87 C134.534668,6.26866366 135.00033,5.80300165 135.609,5.473 C136.21767,5.14299835 136.910663,4.978 137.688,4.978 Z M136.962,14.042 C137.827338,14.042 138.501998,13.745003 138.986,13.151 C139.470002,12.556997 139.712,11.7173388 139.712,10.632 C139.712,9.51732776 139.470002,8.65200308 138.986,8.036 C138.501998,7.41999692 137.827338,7.112 136.962,7.112 C136.081996,7.112 135.403669,7.41266366 134.927,8.014 C134.450331,8.61533634 134.212,9.47332776 134.212,10.588 C134.212,11.6880055 134.450331,12.5386637 134.927,13.14 C135.403669,13.7413363 136.081996,14.042 136.962,14.042 Z M150.91,4.978 C151.834005,4.978 152.658996,5.21266432 153.385,5.682 C154.111004,6.15133568 154.675665,6.81499571 155.079,7.673 C155.482335,8.53100429 155.684,9.51732776 155.684,10.632 C155.684,11.7466722 155.482335,12.7219958 155.079,13.558 C154.675665,14.3940042 154.11467,15.0393311 153.396,15.494 C152.67733,15.9486689 151.848671,16.176 150.91,16.176 C150.14733,16.176 149.465336,16.0146683 148.864,15.692 C148.262664,15.3693317 147.800668,14.9220029 147.478,14.35 L147.478,18.838 C147.478,19.2193352 147.353335,19.5199989 147.104,19.74 C146.854665,19.9600011 146.524669,20.07 146.114,20.07 C145.703331,20.07 145.369668,19.9526678 145.113,19.718 C144.856332,19.4833322 144.728,19.1753352 144.728,18.794 L144.728,6.32 C144.728,5.92399802 144.848999,5.60866784 145.091,5.374 C145.333001,5.13933216 145.659331,5.022 146.07,5.022 C146.480669,5.022 146.810665,5.13933216 147.06,5.374 C147.309335,5.60866784 147.434,5.92399802 147.434,6.32 L147.434,6.87 C147.756668,6.26866366 148.22233,5.80300165 148.831,5.473 C149.43967,5.14299835 150.132663,4.978 150.91,4.978 Z M150.184,14.042 C149.303996,14.042 148.625669,13.7413363 148.149,13.14 C147.672331,12.5386637 147.434,11.6880055 147.434,10.588 C147.434,9.47332776 147.672331,8.61533634 148.149,8.014 C148.625669,7.41266366 149.303996,7.112 150.184,7.112 C151.049338,7.112 151.723998,7.41999692 152.208,8.036 C152.692002,8.65200308 152.934,9.51732776 152.934,10.632 C152.934,11.7173388 152.692002,12.556997 152.208,13.151 C151.723998,13.745003 151.049338,14.042 150.184,14.042 Z M114.93,16.138 C114.101573,16.138 113.43,15.4664271 113.43,14.638 C113.43,13.8095729 114.101573,13.138 114.93,13.138 C115.758427,13.138 116.43,13.8095729 116.43,14.638 C116.43,15.4664271 115.758427,16.138 114.93,16.138 Z" fill="#325FFF"></path>
            </g>
        </g>
    </g>
</svg>